<svg xmlns="http://www.w3.org/2000/svg" viewBox="0 0 120 32" width="120" height="32">
<style>.p1{fill:var(--c1,#FCE5EB);stroke:#fff;stroke-width:1;stroke-opacity:.9}
.p2{fill:var(--c2,#F7CCD7);stroke:#fff;stroke-width:.9;stroke-opacity:.75}
.p3{fill:var(--c3,#EEABBE);stroke:#fff;stroke-width:.7;stroke-opacity:.6}
.p4{fill:var(--c4,#CF7C95)}
.nos{stroke:none}
.r2{fill:none;stroke:var(--c3,#EEABBE);stroke-width:1.9;stroke-linecap:round}
.b1{fill:var(--c2,#F7CCD7);stroke:#fff;stroke-width:.8;stroke-opacity:.8}
.b4{fill:var(--c3,#EEABBE)}
.b2{fill:var(--c4,#CF7C95)}
.b3{fill:#E9C987}
.lf{fill:var(--l1,#AFC6AB)}
.lv{fill:none;stroke:var(--l2,#E4EDDF);stroke-width:1;stroke-linecap:round}
.eu{fill:var(--e1,#C8D9CD);stroke:var(--e2,#AEC5B7);stroke-width:.7}
.st{fill:none;stroke:var(--st,#A9BEA6);stroke-width:1.6;stroke-linecap:round}
.bd{fill:var(--c3,#EEABBE)}
.bs{fill:#A9C2A6}
.bb1{fill:#fff;stroke:#EBCFD7;stroke-width:.8}
.bb2{fill:none;stroke:#C5D4C1;stroke-width:.8;stroke-linecap:round}
.sp{fill:var(--s,#E2C38C)}
.bdy{fill:#C6DCEF}.bwg{fill:#A7C6E4}.bly{fill:#FFF9F2}.bbk{fill:#F2C29E}.bey{fill:#3F3540}.bck{fill:#F3B5C5}
.bfl{fill:none;stroke:#8DB2D7;stroke-width:1.3;stroke-linecap:round}
.bft{fill:none;stroke:#C7AD9C;stroke-width:2.2;stroke-linecap:round}
.tw{transform-box:fill-box;transform-origin:center;animation:tw 3.6s ease-in-out infinite}
.fl{animation:fl 6s ease-in-out infinite}
.hb{animation:hb 3.2s ease-in-out infinite}
@keyframes tw{0%,100%{opacity:.3;transform:scale(.55)}50%{opacity:1;transform:scale(1)}}
@keyframes fl{0%,100%{transform:translateY(0)}50%{transform:translateY(-4px)}}
@keyframes hb{0%,100%{transform:translateY(0)}50%{transform:translateY(-6px)}}
@media (prefers-reduced-motion:reduce){.tw,.fl,.hb{animation:none}}</style>
<defs>
<g id="blossom"><g class="b1"><path d="M0 0C-7 -4 -11 -14 -6.5 -21C-3.6 -25 -1.2 -24 0 -21.4C1.2 -24 3.6 -25 6.5 -21C11 -14 7 -4 0 0Z" transform="rotate(0)"/><path d="M0 0C-7 -4 -11 -14 -6.5 -21C-3.6 -25 -1.2 -24 0 -21.4C1.2 -24 3.6 -25 6.5 -21C11 -14 7 -4 0 0Z" transform="rotate(72)"/><path d="M0 0C-7 -4 -11 -14 -6.5 -21C-3.6 -25 -1.2 -24 0 -21.4C1.2 -24 3.6 -25 6.5 -21C11 -14 7 -4 0 0Z" transform="rotate(144)"/><path d="M0 0C-7 -4 -11 -14 -6.5 -21C-3.6 -25 -1.2 -24 0 -21.4C1.2 -24 3.6 -25 6.5 -21C11 -14 7 -4 0 0Z" transform="rotate(216)"/><path d="M0 0C-7 -4 -11 -14 -6.5 -21C-3.6 -25 -1.2 -24 0 -21.4C1.2 -24 3.6 -25 6.5 -21C11 -14 7 -4 0 0Z" transform="rotate(288)"/></g><g class="b4" transform="scale(.42)"><path d="M0 0C-7 -4 -11 -14 -6.5 -21C-3.6 -25 -1.2 -24 0 -21.4C1.2 -24 3.6 -25 6.5 -21C11 -14 7 -4 0 0Z" transform="rotate(0)"/><path d="M0 0C-7 -4 -11 -14 -6.5 -21C-3.6 -25 -1.2 -24 0 -21.4C1.2 -24 3.6 -25 6.5 -21C11 -14 7 -4 0 0Z" transform="rotate(72)"/><path d="M0 0C-7 -4 -11 -14 -6.5 -21C-3.6 -25 -1.2 -24 0 -21.4C1.2 -24 3.6 -25 6.5 -21C11 -14 7 -4 0 0Z" transform="rotate(144)"/><path d="M0 0C-7 -4 -11 -14 -6.5 -21C-3.6 -25 -1.2 -24 0 -21.4C1.2 -24 3.6 -25 6.5 -21C11 -14 7 -4 0 0Z" transform="rotate(216)"/><path d="M0 0C-7 -4 -11 -14 -6.5 -21C-3.6 -25 -1.2 -24 0 -21.4C1.2 -24 3.6 -25 6.5 -21C11 -14 7 -4 0 0Z" transform="rotate(288)"/></g><circle class="b2" r="3.6"/><g class="b3"><circle cx="6.4" cy="0" r="1.2"/><circle cx="3.99" cy="5" r="1.2"/><circle cx="-1.42" cy="6.24" r="1.2"/><circle cx="-5.77" cy="2.78" r="1.2"/><circle cx="-5.77" cy="-2.78" r="1.2"/><circle cx="-1.42" cy="-6.24" r="1.2"/><circle cx="3.99" cy="-5" r="1.2"/></g></g>
<g id="leaf"><path class="lf" d="M0 0C8 -9 9.5 -24 0 -38C-9.5 -24 -8 -9 0 0Z"/><path class="lv" d="M0 -3C.8 -14 .8 -24 0 -32"/></g>

</defs>

<path d="M2 16H22M98 16H118" stroke="#E7CBD3" stroke-width="1" stroke-linecap="round"/>
<circle cx="28" cy="16" r="1.6" fill="#E2C38C"/><circle cx="92" cy="16" r="1.6" fill="#E2C38C"/>
<use href="#leaf" transform="translate(52 16) rotate(-104) scale(0.5)"/>
<use href="#leaf" transform="translate(52 16) rotate(-62) scale(0.4)"/>
<use href="#leaf" transform="translate(68 16) rotate(104) scale(0.5)"/>
<use href="#leaf" transform="translate(68 16) rotate(62) scale(0.4)"/>
<use href="#blossom" transform="translate(60 16) scale(0.55)" style="--c1:#FCE5EB;--c2:#F7CCD7;--c3:#EEABBE;--c4:#CF7C95"/>

</svg>
